<svg xmlns="http://www.w3.org/2000/svg" width="24" height="24" viewBox="0 0 24 24">
    <path d="M11.99,2C6.47,2 2,6.48 2,12C2,17.52 6.47,22 11.99,22C17.52,22 22,17.52 22,12C22,6.48 17.52,2 11.99,2ZM12,20C7.58,20 4,16.42 4,12C4,7.58 7.58,4 12,4C16.42,4 20,7.58 20,12C20,16.42 16.42,20 12,20ZM15.5,11C16.33,11 17,10.33 17,9.5C17,8.67 16.33,8 15.5,8C14.67,8 14,8.67 14,9.5C14,10.33 14.67,11 15.5,11ZM8.5,11C9.33,11 10,10.33 10,9.5C10,8.67 9.33,8 8.5,8C7.67,8 7,8.67 7,9.5C7,10.33 7.67,11 8.5,11ZM12.091,15.684C12.353,15.684 12.598,15.686 12.828,15.688C17.182,15.729 15.899,16.039 16.35,14.037C14.89,14.04 13.512,14.061 12.035,14.057C10.648,14.054 9.163,14.028 7.76,14.019C8.017,16.002 6.811,15.698 11.655,15.684C11.795,15.684 11.94,15.684 12.091,15.684Z"/>
</svg>
